<?xml version="1.0" encoding="UTF-8"?>
<svg id="Capa_2" data-name="Capa 2" xmlns="http://www.w3.org/2000/svg" viewBox="0 0 102.6 102.6">
  <defs>
    <style>
      .cls-1 {
        fill: #fff;
      }

      .cls-2 {
        fill: #e62448;
      }
    </style>
  </defs>
  <g id="Capa_1-2" data-name="Capa 1">
    <g>
      <circle class="cls-2" cx="51.3" cy="51.3" r="51.3"/>
      <path class="cls-1" d="m83.09,35.29c-.78-2.87-3.02-5.13-5.89-5.89-3.86-1.49-41.26-2.22-52.11.04-2.87.78-5.13,3.02-5.89,5.89-1.74,7.65-1.87,24.17.04,31.99.78,2.87,3.02,5.13,5.89,5.89,7.65,1.76,43.99,2.01,52.11,0,2.87-.78,5.13-3.02,5.89-5.89,1.86-8.33,1.99-23.83-.04-32.03Z"/>
      <path class="cls-2" d="m62.16,51.3l-17.43-9.99v19.99l17.43-9.99Z"/>
    </g>
  </g>
</svg>