<?xml version="1.0" encoding="UTF-8"?>
<svg id="Capa_2" data-name="Capa 2" xmlns="http://www.w3.org/2000/svg" viewBox="0 0 460.22 460.22">
  <defs>
    <style>
      .cls-1 {
        fill: #fff;
      }

      .cls-2 {
        fill: #e62046;
      }
    </style>
  </defs>
  <g id="Capa_1-2" data-name="Capa 1">
    <g>
      <circle class="cls-2" cx="230.11" cy="230.11" r="230.11"/>
      <g>
        <path class="cls-1" d="m384.31,280.99c-2.07,3.36-5.21,4.18-8.96,4.14-10.23-.12-20.47-.03-30.71-.05-6.04-.01-8.34-2.31-8.35-8.36-.02-10.54-.03-21.07,0-31.61.02-5.97,2.19-8.08,8.19-8.09,3.19,0,6.38,0,9.58,0-3.17-60.6-49.03-106.46-99.9-115.6,0,2.73.04,5.41,0,8.09-.08,4.79-2.4,7.32-7.19,7.36-11.24.1-22.48.1-33.72,0-4.78-.04-7.11-2.57-7.19-7.36-.04-2.68,0-5.35,0-8.09-50.9,9.15-96.74,55.03-99.9,115.6,3.5,0,6.99-.02,10.48,0,4.61.03,7.15,2.06,7.22,6.58.18,11.54.16,23.08.01,34.62-.06,4.45-2.58,6.78-7.09,6.82-11.24.1-22.48.02-33.72.04-3.2,0-5.45-1.55-7.15-4.1v-39.75c1.74-3.32,4.49-4.52,8.19-4.26,3.25.22,6.53.05,9.5.05,4.75-53.99,30.82-93.11,78.77-117.92h-48.44c0,3.27.01,6.36,0,9.44-.03,6.05-2.31,8.35-8.36,8.36-10.24.02-20.47-.08-30.71.05-3.75.05-6.89-.77-8.96-4.14v-43.97h43.97c3.36,2.08,4.25,5.25,4.08,8.98-.13,2.86-.03,5.74-.03,8.73h82.12c0-3.15.14-6.15-.04-9.12-.23-3.73.92-6.65,4.21-8.59h39.75c3.3,1.94,4.44,4.86,4.21,8.59-.18,2.97-.04,5.96-.04,9.04h82.12c0-3.05.1-5.85-.02-8.65-.17-3.73.71-6.9,4.08-8.98h43.97v43.97c-2.07,3.36-5.21,4.18-8.96,4.14-10.13-.12-20.27-.04-30.4-.04-6.43,0-8.64-2.22-8.66-8.66,0-3.06,0-6.12,0-9.18h-48.51c48.1,24.89,74.2,64.11,78.84,117.96,3.13,0,6.33.18,9.51-.05,3.7-.26,6.45.94,8.19,4.26v39.75ZM218.51,101v23.27h23.2v-23.27h-23.2Zm-130.38,0v23.33h23.24v-23.33h-23.24Zm283.95,23.4v-23.34h-23.23v23.34h23.23ZM111.35,272.6v-23.33h-23.2v23.33h23.2Zm237.54-23.4v23.38h23.14v-23.38h-23.14Z"/>
        <path class="cls-1" d="m187.34,397.24c-3.32-1.74-4.31-4.5-4.28-8.19.15-14.85.03-29.71.1-44.56.01-2.16-.44-3.56-2.4-4.91-6.58-4.53-9.07-12.57-6.65-20.22,2.32-7.33,9.14-12.33,17.01-12.46,1.7-.03,3.4,0,5.6,0-.59-2.38-1-4.58-1.66-6.69-4.34-13.71-11.46-25.75-21.74-35.88-5.08-5-5.22-6.21-1.77-12.49,2.32-4.21,4.58-8.46,6.95-12.64,2.19-3.87,5.49-5.08,8.74-3.35,3.25,1.73,4.02,5.15,1.95,9.12-1.58,3.02-3.12,6.07-4.94,8.94-1.25,1.96-1.02,3.2.56,4.88,10.84,11.53,18.28,25,22.55,40.23.7,2.5,1.26,5.03,1.92,7.72h41.42c1.48-4.97,2.72-10.01,4.46-14.86,4.44-12.42,11.16-23.51,20.25-33.09,1.6-1.68,1.67-2.87.55-4.88-12.69-22.86-25.28-45.78-37.9-68.67-.46-.83-.97-1.63-1.94-3.23,0,5.18,0,9.45,0,13.72,0,9.23.04,18.47-.03,27.7-.01,1.69.36,2.62,2.08,3.36,10.07,4.36,14.68,14.93,11.25,25.39-3.14,9.57-13.7,15.68-23.37,13.51-10.59-2.38-17.7-12.04-16.3-22.68,1-7.6,5.18-13.11,12.25-16.26,1.24-.56,2.13-1.01,2.12-2.72-.09-13.45-.05-26.9-.06-40.35,0-.26-.11-.52-.27-1.21-.68,1.12-1.19,1.91-1.65,2.74-3.74,6.75-7.43,13.52-11.21,20.24-2.16,3.85-5.58,5.09-8.73,3.32-3.2-1.79-4.01-5.31-1.91-9.13,7.99-14.58,15.99-29.16,24.07-43.69,2.97-5.34,8.55-5.31,11.52.07,17.97,32.53,35.89,65.09,53.8,97.65,2.21,4.02,1.84,6.11-1.74,9.58-11.72,11.37-19.74,24.88-23.79,40.72-.22.86-.39,1.74-.65,2.92,2,0,3.79-.02,5.57,0,7.88.13,14.69,5.12,17.01,12.46,2.42,7.65-.07,15.69-6.65,20.22-1.96,1.35-2.42,2.75-2.41,4.91.07,14.85-.05,29.71.1,44.56.04,3.69-.96,6.45-4.28,8.19h-3.61c-3.32-1.74-4.32-4.5-4.28-8.19.16-14.25.06-28.51.06-42.76v-3.1h-69.88v3.4c0,14.15-.09,28.31.06,42.46.04,3.69-.96,6.45-4.28,8.19h-3.61Zm42.62-66.25c12.23,0,24.46.01,36.7-.02,1.28,0,2.61-.15,3.84-.47,2.75-.72,4.18-2.63,4.22-5.47.03-2.83-1.35-4.8-4.09-5.56-1.32-.37-2.76-.51-4.14-.51-24.26-.03-48.53-.03-72.79,0-1.48,0-3.04.12-4.43.58-3.7,1.22-4.98,5.66-2.69,8.85,1.59,2.21,3.92,2.59,6.38,2.59,12.33,0,24.66,0,37,0Zm0-77.1c4.52.08,8.48-3.77,8.53-8.29.05-4.47-3.92-8.46-8.42-8.44-4.39.01-8.23,3.76-8.38,8.18-.15,4.46,3.73,8.48,8.26,8.56Z"/>
        <path class="cls-1" d="m194.27,228.61c-3.26-.03-5.87-2.64-5.9-5.91-.03-3.34,2.77-6.17,6.06-6.12,3.11.05,5.94,2.87,6,5.98.06,3.22-2.85,6.08-6.16,6.05Z"/>
      </g>
    </g>
  </g>
</svg>