<?xml version="1.0" encoding="UTF-8"?>
<svg id="Capa_2" data-name="Capa 2" xmlns="http://www.w3.org/2000/svg" viewBox="0 0 460.22 460.22">
  <defs>
    <style>
      .cls-1 {
        fill: #fff;
      }

      .cls-2 {
        fill: #e62046;
      }
    </style>
  </defs>
  <g id="Capa_1-2" data-name="Capa 1">
    <g>
      <circle class="cls-2" cx="230.11" cy="230.11" r="230.11"/>
      <g>
        <path class="cls-1" d="m281.44,190.82c-1.64,0-2.75,0-3.85,0-59.74,0-119.48,0-179.22,0-8.52,0-11.44,2.92-11.46,11.41,0,1.46.31,3.04-.16,4.33-.42,1.13-1.7,2.6-2.68,2.66-1.05.07-3.1-1.24-3.17-2.08-.51-6.1-1.16-12.34,3.43-17.47,3.34-3.73,7.53-5.23,12.49-5.22,57.87.04,115.74.02,173.61.02,3.74,0,7.49-.15,11.22.06,2.3.13,3.44-.66,4.48-2.73,16.79-33.5,33.7-66.93,50.51-100.42,1.27-2.52,2.65-4.26,5.86-2.98.98-2.04,1.84-3.92,2.77-5.75,3.03-5.99,9.25-8.31,14.87-5.56,5.47,2.67,7.53,8.95,4.87,14.91-.84,1.89-1.73,3.75-2.68,5.79,2.91,1.53,2.75,3.6,1.56,6.28-12.74,28.75-25.38,57.55-38.05,86.33-.53,1.21-1.02,2.44-1.7,4.07,2.84,0,5.3-.03,7.75,0,8.1.1,14.21,5.68,15.03,13.73.13,1.24.16,2.49.16,3.74,0,38.62,0,77.24,0,115.86,0,1.14.22,2.45-.26,3.38-.54,1.03-1.77,2.4-2.66,2.37-1.13-.03-2.53-1.12-3.23-2.15-.55-.8-.29-2.21-.29-3.35-.01-38.83-.12-77.66.08-116.49.04-7.6-4.34-10.46-10.8-10.97-6.8-.54-10.64,1.53-12.25,8.16-.55,2.27-1.82,4.36-2.78,6.58,7.76,1.18,9.53,3.29,9.53,11.2,0,36.23,0,72.45,0,108.68,0,8.27-2.68,10.92-11.02,10.92-51.95,0-103.9,0-155.85,0-7.83,0-10.78-2.91-10.78-10.67,0-36.44,0-72.87,0-109.31,0-7.7,2.82-10.51,10.51-10.51,37.82,0,75.64-.02,113.46.05,2.37,0,3.76-.53,4.75-2.84,1.71-3.96,3.8-7.76,5.96-12.07Zm-10.67,21.22c-.87-.08-1.18-.13-1.49-.13-37.51,0-75.01.03-112.52-.06-3.14,0-3.53,1.45-3.53,4.02.05,36.64.06,73.28-.02,109.92,0,2.92.79,4.02,3.85,4.02,52.36-.07,104.72-.06,157.09-.02,2.83,0,4.04-.71,4.03-3.88-.1-36.75-.07-73.49-.07-110.24,0-1.53.37-3.44-1.83-3.68-2.14-.23-4.23-.68-5.51,2.35-5.23,12.43-10.75,24.75-16.28,37.05-.68,1.52-1.88,3.01-3.22,3.99-6.69,4.92-13.39,9.87-20.34,14.4-3.7,2.41-6.16,5.45-7.5,9.51-4.97,15.01-25.08,24.19-40.36,21.08-6.05-1.23-10.55-4.69-13.93-9.71-2.76-4.1-6.04-7.57-11.26-8.03-7.12-.64-14.13.07-20.68,3.14-5.02,2.35-8.07,6.28-9.02,11.88-.92,5.46.41,10.53,2.2,15.54.78,2.2,1.06,4.26-1.47,5.23-2.63,1.01-3.84-.92-4.49-3.04-.97-3.17-1.94-6.36-2.54-9.61-2.26-12.31,3.68-22.64,15.38-26.95,6.95-2.56,14.17-3.19,21.47-2.44,4.89.5,9.17,2.59,12.35,6.51,1.51,1.86,2.95,3.76,4.4,5.66,2.16,2.83,4.93,4.61,8.44,5.44,10.47,2.45,25.09-2.82,30.88-11.87,3.36-5.25,6.32-10.79,5.4-17.67-.97-7.2-1.08-14.52-1.76-21.76-.32-3.4-.03-6.47,1.64-9.59,3.67-6.82,7.03-13.82,10.67-21.06Zm71.03-126.75c-25.44,50.46-50.73,100.64-76.14,151.03,8,3.79,15.73,7.45,23.67,11.2,22.75-51.69,45.41-103.18,68.13-154.79-5.27-2.5-10.22-4.86-15.66-7.44Zm-57.15,167.07c-6.74-3.19-12.96-6.14-19.69-9.33.54,7.52,1.04,14.56,1.58,22.14,6.2-4.38,11.97-8.47,18.11-12.81Zm71.83-167.14c1.1-2.35,2.15-4.37,3.01-6.47,1.02-2.49.21-4.51-2.06-5.82-2.13-1.23-4.86-.39-6.14,1.9-1.1,1.97-1.95,4.08-3.03,6.39,2.77,1.35,5.34,2.6,8.23,4Z"/>
        <path class="cls-1" d="m345.28,346.22c.51.14,1.51.13,2.03.63.82.78,1.9,1.97,1.79,2.86-.12,1.07-1.19,2.31-2.19,2.9-.87.52-2.21.31-3.35.31-84.66.01-169.32,0-253.98,0q-4.72,0-5.36-4.99c-.04-.29-.21-.59-.4-.82-3.42-4.22-3.28-9.21-3.27-14.24.04-36.32.02-72.65.03-108.97,0-1.04-.34-2.37.16-3.05.81-1.1,2.15-2.36,3.34-2.44.85-.06,2.11,1.57,2.66,2.71.45.93.15,2.25.15,3.39,0,36.84,0,73.69.02,110.53,0,1.65.09,3.34.43,4.95.74,3.51,3.65,5.99,7.19,6.31,1.14.1,2.28.09,3.42.09,77.28,0,154.57,0,231.85-.02,1.75,0,3.61.04,5.21-.53,3.99-1.43,5.73-4.55,5.58-8.76-.08-2.35.66-4.39,3.27-4.39,2.66,0,3.43,2.18,3.14,4.44-.38,2.94-1.1,5.84-1.74,9.08Z"/>
        <path class="cls-1" d="m115.14,285.78c-9.51.06-17.11-7.38-17.19-16.84-.08-9.61,7.46-17.43,16.93-17.53,9.32-.1,17.33,7.89,17.33,17.26,0,9.33-7.69,17.04-17.07,17.1Zm-.26-27.83c-5.98.05-10.64,4.73-10.66,10.69-.02,6.04,4.81,10.82,10.89,10.79,5.94-.03,10.63-4.75,10.66-10.71.03-6.08-4.77-10.82-10.89-10.77Z"/>
        <path class="cls-1" d="m115.14,245.55c-4.15,0-8.29,0-12.44,0-2.77,0-4.25-1.23-4.17-4.16.08-3.01.06-6.03,0-9.04-.04-2.43,1.07-3.75,3.5-3.75,8.81-.03,17.63-.03,26.44,0,2.43,0,3.59,1.41,3.64,3.73.06,3.01.03,6.02.02,9.04-.01,2.81-1.45,4.19-4.24,4.19-4.25,0-8.5,0-12.75,0Zm10.31-10.39h-20.47v3.62h20.47v-3.62Z"/>
        <path class="cls-1" d="m115.43,220.03c-4.35,0-8.71-.03-13.06.01-2.57.02-3.85-1.16-3.82-3.76.03-3.12.02-6.23,0-9.35-.02-2.39,1.04-3.73,3.52-3.73,8.81,0,17.62,0,26.44,0,2.5,0,3.55,1.48,3.62,3.74.09,3.11.09,6.23,0,9.35-.07,2.45-1.32,3.79-3.93,3.76-4.25-.06-8.5-.02-12.75-.01Zm10.03-6.38v-3.98h-20.48v3.98h20.48Z"/>
        <path class="cls-1" d="m114.58,311.38c-4.15,0-8.29-.05-12.44.02-2.81.04-4.27-1.07-4.16-4.05.11-2.9.09-5.82,0-8.72-.09-2.74,1.2-4.12,3.85-4.13,8.6-.04,17.21-.03,25.81,0,2.47,0,3.89,1.28,3.93,3.82.05,3.12.04,6.23,0,9.35-.03,2.56-1.41,3.75-3.94,3.73-4.35-.02-8.71,0-13.06,0Zm-10.23-6.56h20.66v-3.7h-20.66v3.7Z"/>
        <path class="cls-1" d="m114.81,317.35c4.25,0,8.51.03,12.76,0,2.71-.02,4.03,1.28,4.03,3.97,0,3.01.02,6.03,0,9.04-.02,2.52-1.34,3.9-3.84,3.91-8.71.04-17.43.05-26.14-.01-2.31-.02-3.63-1.26-3.6-3.73.03-3.12.06-6.24,0-9.35-.06-2.63,1.18-3.83,3.75-3.82,4.36.01,8.71,0,13.07,0Zm-10.35,6.47v3.81h20.53v-3.81h-20.53Z"/>
        <path class="cls-1" d="m362.2,352.89c-1.24,0-2.68.4-3.67-.1-1.28-.64-3.01-1.99-3.03-3.06-.02-1.07,1.7-2.9,2.89-3.12,2.59-.48,5.4-.48,7.99,0,1.19.22,2.91,2.08,2.88,3.15-.03,1.08-1.79,2.44-3.08,3.03-1.11.51-2.64.11-3.98.1Z"/>
        <path class="cls-1" d="m71.43,352.87c-.83,0-1.87.32-2.43-.07-1.16-.79-2.95-2.05-2.86-2.94.13-1.22,1.58-2.81,2.82-3.27,1.55-.57,3.61-.57,5.16,0,1.26.45,2.74,2,2.9,3.23.12.87-1.68,2.2-2.86,2.96-.66.42-1.81.08-2.74.08,0,0,0,0,0,.01Z"/>
        <path class="cls-1" d="m309.76,180.21c-.49,1.41-.73,2.31-1.12,3.14-5.83,12.4-11.62,24.82-17.61,37.14-.65,1.33-2.41,2.78-3.79,2.93-2.3.26-3.34-2.51-2.09-5.17,4.23-9.02,8.51-18.02,12.76-27.02,1.82-3.85,3.46-7.79,5.54-11.49.59-1.05,2.43-1.87,3.7-1.88.88-.01,1.77,1.55,2.6,2.36Z"/>
      </g>
    </g>
  </g>
</svg>