<?xml version="1.0" encoding="UTF-8"?>
<svg id="Capa_2" data-name="Capa 2" xmlns="http://www.w3.org/2000/svg" viewBox="0 0 460.22 460.22">
  <defs>
    <style>
      .cls-1 {
        fill: #fff;
      }

      .cls-2 {
        fill: #e62046;
      }
    </style>
  </defs>
  <g id="Capa_1-2" data-name="Capa 1">
    <g>
      <circle class="cls-2" cx="230.11" cy="230.11" r="230.11"/>
      <g>
        <path class="cls-1" d="m373.27,76.75c2.73,1.72,3.46,3.96,2.44,7.14-3.11,9.76-5.96,19.61-9,29.39-2.18,7.02-7.36,10.75-14.73,10.77-5.96.02-11.93,0-18.2,0,0,1.37,0,2.44,0,3.51-.01,11.88.09,23.76-.07,35.64-.2,14.05-11.58,25.66-25.63,26.14-6.67.23-13.35.04-20.51.04,0,3.45,0,6.59,0,9.73,0,2.6.02,5.19,0,7.79-.05,7.56-4.74,12.31-12.28,12.44-.78.01-1.56,0-2.75,0,0,1.29,0,2.34,0,3.4,0,10.58-.04,21.16.02,31.75.04,6.68-2.64,11.66-8.51,15.02-8.73,5-17.31,10.28-26.1,15.18-2.55,1.43-3.45,3.02-3.26,5.86.26,3.78.11,7.58.05,11.38-.06,3.65-1.84,5.67-4.8,5.58-2.8-.09-4.43-2.06-4.48-5.6-.05-4.09-.18-8.2.05-12.28.13-2.37-.8-3.51-2.76-4.63-8.74-4.99-17.31-10.3-26.09-15.21-6.36-3.55-9.13-8.75-9.03-15.92.14-10.28.04-20.56.04-30.85,0-1.09,0-2.17,0-3.53-1.15-.06-2.11-.13-3.07-.15-7.11-.14-11.9-4.98-11.96-12.16-.04-5.77,0-11.54,0-17.69-5.82,0-11.39.24-16.93-.08-4.03-.23-8.21-.62-11.98-1.93-10.23-3.57-17.12-13.48-17.23-24.3-.13-12.87-.03-25.75-.03-38.92-.99-.08-1.84-.21-2.68-.21-5.19-.02-10.38,0-15.57-.01-7.37-.03-12.55-3.76-14.72-10.78-3.03-9.79-5.88-19.63-8.99-29.39-1.02-3.19-.3-5.42,2.44-7.14,1.2,0,2.4,0,3.59,0,1.01,1.86,2.35,3.62,2.98,5.61,2.9,9.09,5.6,18.24,8.39,27.37,1.25,4.1,2.8,5.27,7.16,5.27,80.7,0,161.39,0,242.09,0,4.35,0,5.9-1.18,7.15-5.28,2.79-9.12,5.49-18.27,8.39-27.36.63-1.98,1.97-3.75,2.98-5.61,1.2,0,2.4,0,3.59,0Zm-143.3,133.59c14.66,0,29.33,0,43.99,0,3.82,0,4.48-.66,4.49-4.54.01-18.16.01-36.31,0-54.47,0-3.84-.68-4.5-4.52-4.5-29.23,0-58.46,0-87.68,0-3.83,0-4.48.64-4.48,4.54-.01,18.16-.01,36.31,0,54.47,0,3.86.67,4.5,4.51,4.51,14.56,0,29.13,0,43.69,0Zm57.6-29.93c6.3,0,12.17.02,18.05,0,11.41-.04,19.12-7.77,19.13-19.2.02-11.38,0-22.76,0-34.14,0-.96-.09-1.91-.13-2.82h-8.78c0,1.27,0,2.35,0,3.43,0,11.18.03,22.36-.01,33.54-.02,7.11-4.46,10.99-11.56,10.26-2.56-.26-4.01-1.64-4.21-4.2-.19-2.44,1.46-4.4,3.96-4.8.85-.13,1.72-.14,2.56-.21v-38h-153.03v38.15h19.07c0-4.03.23-7.72-.05-11.37-.53-6.87,4.5-13.45,13.31-13.36,29.35.29,58.7.31,88.05-.01,9.21-.1,14.05,6.41,13.72,13.92-.41,9.45-.1,18.93-.1,28.79Zm-90.55,62.34c0,4.85-.26,9.44.14,13.98.14,1.56,1.59,3.52,3,4.38,9.34,5.71,18.82,11.21,28.32,16.66.82.47,2.36.53,3.16.07,9.5-5.46,18.96-10.99,28.33-16.67,1.32-.8,2.88-2.42,2.98-3.77.36-4.82.14-9.68.14-14.66h-66.07Zm.09-9.53h65.98v-13.69h-65.98v13.69Zm-61.63-108.99c0,13.33-.23,26.4.09,39.45.19,7.58,5.92,14.84,13.17,15.89,7.79,1.13,15.79.82,23.68,1.13v-8.84c-.39-.14-.57-.26-.76-.26-5.39-.03-10.79-.31-16.16,0-7.11.42-11.45-4.25-11.24-11.08.34-10.97.09-21.95.09-32.92,0-1.07,0-2.14,0-3.37h-8.88Z"/>
        <path class="cls-1" d="m165.41,374.33h129.22c.06-.85.17-1.7.17-2.56.01-10.88.01-21.76,0-32.64,0-3.64-.47-4.12-4.15-4.12-29.34,0-58.69,0-88.03,0-1,0-2,.03-2.99-.05-2.57-.2-3.99-1.68-4.21-4.2-.22-2.41,1.53-4.42,4-4.75.79-.11,1.59-.05,2.39-.05,29.84,0,59.69.12,89.53-.1,6.65-.05,12.85,4.64,12.55,12.69-.4,10.76-.1,21.56-.1,32.34v3.58c2.98,0,5.75-.02,8.51,0,3.33.03,5.21,1.6,5.26,4.37.06,2.91-1.85,4.6-5.33,4.6-33.74.01-67.47,0-101.21,0-34.24,0-68.47,0-102.71,0-4.4,0-6.76-2.98-5.13-6.4,1-2.09,2.76-2.6,4.94-2.59,14.87.04,29.74.02,44.62.02h3.7c0-1.2,0-2.25,0-3.3,0-11.18-.01-22.36,0-33.54,0-7.01,4.57-11.61,11.56-11.66,3.39-.03,6.79-.05,10.18.01,2.95.05,4.98,1.87,5.08,4.41.1,2.64-1.97,4.54-5.13,4.6-3.09.06-6.19.06-9.28,0-2.34-.04-3.47.87-3.46,3.36.06,11.88.03,23.75.03,35.98Z"/>
        <path class="cls-1" d="m343.03,383.44c-2.99,0-5.98.05-8.97-.01-2.94-.06-4.79-1.94-4.71-4.63.08-2.56,1.89-4.29,4.72-4.32,6.18-.05,12.36-.05,18.55,0,2.93.02,4.95,1.93,4.95,4.48,0,2.55-2.03,4.43-4.96,4.47-3.19.05-6.38.01-9.57.01Z"/>
        <path class="cls-1" d="m146.08,104.9c-4.48,0-8.96.03-13.43,0-3.19-.02-5.2-1.78-5.23-4.46-.03-2.73,1.91-4.51,5.13-4.52,9.06-.03,18.11-.03,27.17,0,3.17.01,5.14,1.86,5.08,4.57-.07,2.68-2.06,4.39-5.27,4.41-4.48.03-8.96,0-13.43,0Z"/>
        <path class="cls-1" d="m187.55,100.47c-.06,2.47-2.26,4.52-4.69,4.37-2.33-.15-4.27-2.24-4.21-4.56.05-2.46,2.23-4.46,4.71-4.33,2.37.13,4.26,2.16,4.2,4.52Z"/>
        <path class="cls-1" d="m233.75,178.8c0-5.58-.03-11.16.01-16.74.03-3.95,1.73-5.6,5.65-5.63,2.99-.02,5.98-.01,8.97,0,8.59.03,14.92,4.26,17.8,12.36,2.97,8.36,2.77,16.66-1.97,24.4-3.53,5.76-8.8,8.76-15.66,8.75-2.99,0-5.98.05-8.97.03-3.99-.02-5.78-1.78-5.82-5.84-.05-5.78-.01-11.56-.01-17.34Zm9.34,13.84c7.01.99,11.15-.2,13.48-4.36,3.47-6.2,3.37-12.66-.23-18.72-3.01-5.07-8.23-4.21-13.25-4.05v27.13Z"/>
        <path class="cls-1" d="m218.73,178.48c5.3,8.18,4.3,16.25-2.49,21-7.33,5.13-17.57,2.16-21.01-6.1-1.24-2.97-.54-5.61,1.79-6.74,2.51-1.22,4.98-.17,6.48,2.9,1.18,2.42,2.96,3.87,5.68,3.26,2.52-.56,3.96-2.37,3.81-5.01-.16-2.76-1.78-4.27-4.57-4.63-2.76-.35-4.77-1.61-4.69-4.75.08-3.12,2.13-4.24,4.9-4.56,2.66-.31,4.13-1.91,4.35-4.51.19-2.36-.97-4.11-3.17-4.88-2.46-.86-4.61-.08-5.89,2.2-1.09,1.94-2.3,3.54-4.74,3.49-3.36-.07-5.25-3.41-3.85-6.71,3.08-7.26,11.98-10.52,19.09-6.97,7.18,3.58,9.92,12.38,6.01,19.38-.48.87-1.08,1.67-1.71,2.63Z"/>
      </g>
    </g>
  </g>
</svg>