<?xml version="1.0" encoding="UTF-8"?>
<svg id="Capa_2" data-name="Capa 2" xmlns="http://www.w3.org/2000/svg" viewBox="0 0 1454.5 757.33">
  <defs>
    <style>
      .cls-1 {
        fill: #ced4da;
      }
    </style>
  </defs>
  <g id="Layer_1" data-name="Layer 1">
    <g>
      <path class="cls-1" d="m92.72,756.37l-40.84-.06v-55.34l40.26.08v10.14l-26.43-.06v11.63h25.22v10.19l-25.22-.06v13.32l27,.03v10.14Zm116.29.09h-11.58l-30.62-35.51v35.45h-13.77v-55.35l12.62.03,29.58,33.89v-33.83l13.77.03v55.29h0Zm112.09-45.09l-20.03-.03v45.15h-13.77v-45.18l-20.03-.03v-10.11l53.83.03v10.17Zm99.04,45.29l-40.82-.08v-55.35l40.21.09v10.11l-26.43-.03v11.61h25.23v10.17l-25.23-.03v13.29l27.03.03v10.19h0Zm84.93-55.31c11.4,0,18.14,7.67,18.14,15.93,0,6.1-3.15,10.62-9.47,13.55,5.68,2.83,7.37,9.66,15.15,25.91l-15.15-.06c-5.95-11.83-8.12-22.48-15.62-22.48l-3.94-.03v22.51l-13.8-.03v-55.34l24.7.03Zm-10.9,22.67l7.28.06c3.82,0,7.56-1.61,7.56-6.32,0-4.13-2.7-6.27-7.87-6.27h-6.97v12.53h0Zm136.83-12.47l-20.01-.03v45.16h-13.79v-45.19l-20.04-.03v-10.11l53.85.09v10.11h0Zm106.81,45.29l-14.89-.06-4.5-10.91-24.75-.06-4.16,10.98-14.62-.03,22.31-55.3,16.01.03,24.61,55.37Zm-32.4-42.17l-8.1,21.47,17.03.03-8.93-21.5Zm102.8,42.2l-13.84-.03v-55.34h13.84v55.37Zm118.45.12l-11.61-.03-30.59-35.56v35.52l-13.77-.03v-55.37l12.62.08,29.55,33.83v-33.8h13.8v55.35Zm109.63-55.26h12.07v55.35l-13.8-.03v-34.56l-14.98,17.33h-2.09l-14.92-17.36v34.53h-13.79v-55.35l12.02.03,17.78,20.57,17.73-20.51Zm114.96,55.41l-40.84-.06v-55.35l40.26.09v10.14l-26.46-.03v11.54l25.22.08v10.14l-25.22-.03v13.29l27.03.06v10.14h0Zm116.28.14l-11.6-.03-30.59-35.52v35.49l-13.8-.08v-55.32l12.65.03,29.55,33.89v-33.86l13.79.03v55.37h0Zm112.1-45.14l-20.05-.03v45.19h-13.79v-45.23l-20.08-.03v-10.14l53.91.09v10.14Z"/>
      <path class="cls-1" d="m888.84,523.09c-.09,9.11,4.67,10.99,5.22,16.75v48.49l-.88.55c-2.73,1.94-3.94,2.92-4.27,3.24.03.22.13.79.13,1.59,0,.64-.09,1.34-.19,2.26l-.28,1.71h-77.73l-.59-1.01c-1.06-1.82-2-3.06-3.18-4.68l-25.67-2.75c-4.95,5.51-13.01,10.67-19.66,12.95l-.31.09h-.33c-19.55,0-30.46.93-41.72.93-5.2.98-19.27,9.5-30.08,9.63h-.86l-.57-.64c-4.16-4.49-5.25-9.32-5.22-13.36,0-3.82.79-7.06.79-8.74v-20.6l.85-.57c2.24-1.55,3.42-2.06,4.75-3.79,1.01-1.27,1.49-3.56,1.49-5.98,0-4.92-1.82-10.29-1.82-10.29l-.48-1.44,1.21-.85c4.74-3.37,7.51-4.61,9.7-9,.79-1.71,1.18-4.16,1.18-6.64,0-5.05-1.3-10.11-1.3-10.11l-.39-1.4,1.15-.76c2.25-1.52,3.4-2.1,4.7-3.76.91-1.18,1.37-3.2,1.37-5.47,0-4.55-1.66-9.44-1.66-9.44l-.09-.36v-.31c.33-2.87,3.82-8.07,5.25-13.1,1.27-4.43,1.79-10.02,1.79-15.48,0-10.98-1.88-21.27-1.88-21.69.09-5-2.86-6.07-5.06-11.86-3.87-10.97-5.08-24.33-5.08-37.26,0-25.91,4.98-50.27,5.08-50.66l30.91-82.11c-.22-1.13-3.12-1.94-5.05-5.87-.39-1.03-.61-2.02-.61-2.87.06-1.88.47-2.92.47-4.8v-.82l.61-.58c-.06-.06,7.25-7.41,7.16-15.32,0-2.81-.06-4.39-.06-5.98,0-.81,0-1.6.06-2.67,1.18-6.06,13.9-21.57,15.48-36.25.23-1.88.3-4.21.3-6.43,0-4.46-.3-8.59-.3-8.71.39-4.97,21.24-52.95,36.16-67.85v-18.35l.86-.58c1.05-.61,4.58-3.52,4.3-5.09v-.12c-.03-1.49-.16-.57-2.8-3.71h-27.36l-.54-1.03c-1.37-2.33-1.93-3.49-3.55-5.15-2-2-4.8-2.76-8.14-2.76-6.77-.03-14.13,3.18-17.59,3.34-.98-.34-4.89,2.99-8.17,10.65-3.43,7.58-6.8,18.93-9.25,33.74-4.86,30.94-9.98,35.13-16.6,35.26-1.09,0-1.97-.12-2.8-.06-2.24.09-3.79.09-6.68,4.58l-1.27,2.07-1.79-1.58c-2.28-2.06-5.25-4.83-6.19-5.4l-1.3-.9.53-1.49c1.97-5.08,2.55-8.68,2.55-11.44.09-5.43-2.55-8.34-2.67-14.38.23-4.83,4.71-9.1,7.76-12.02V18.63l1.85-.12c1.68-.12,5.71-.12,15.77-.12,20.06,0,63.91.12,158.6.12h1.15l.61.98c3.14,5.19,3.31,4.85,3.49,4.75.34,0,1.4-.17,2.89-.17.33,0,.76,0,1.18.05l1.75.25v6.61l-.48.58c-4.58,5.17-6.33,23.4-21.37,38.54.25,1.76.67,5.59.67,9.7,0,2.76-.17,5.65-.84,8.23-2.56,9.92-5.23,11.61-15.32,21.15.29,1.77.81,5.59.81,9.69,0,2.84-.23,5.73-.99,8.31-3.59,8.9-9.92,4.89-10.26,15.11,0,0-2.87,19.66-5.48,32.14-2.64,12.37-9.02,19.56-8.93,29.03,0,1.4.16,2.83.43,4.8l-1.55,50.63-.79.57c-7.53,4.49-6.16,33.51-19.78,48.07v17.65l-.13.31c-4.16,10.98-12.11,10.34-15.36,24.49v57.59l-15.49,44.56c.14,1.68.61,8.01.61,14.88,0,3.97-.15,8.1-.67,11.71-2.1,14.15-11.44,31.38-16.15,39.39-1.18,1.88-1.76,2.9-2.3,3.73.06.41.11.86.11,1.28-.11,5.68-4.15,15.29-4.91,17.2-.34,3.68-3.15,8.81-4.67,11.69,1.97,1.94,2.55,2.67,4.01,2.61.26.16,1.66-1.3,3.43-4.58l.93-1.61,1.65.82c3.21,1.52,6.04,2,8.94,2,5.74.06,11.83-2.16,19.48-2.16,2.07-.39,2.36-1.79,2.97-5.79.5-3.68,1.04-8.83,5.05-13.14,7.76-8.2,24.97-9.95,28.69-12.9,20.94-14.53,29.62-7.76,43.33-30.09l1.27-2.1,1.79,1.66c1.77,1.65,3.17,3.14,4.74,5.08h25.97l.61.96c2.64,4.55,7.95,7.76,8.1,15.01-1.05,5.34-5.06,3.55-5.21,15.32m131.29-104.4c-.03,28.34-.56,56.04-2.25,62.96l-.16.73-.64.45c-2.73,1.58-6.58,13.38-10.34,25.79-3.88,12.11-8.07,25.09-14.69,32.05v29.48l-.79.61c-5.95,3.65-6.91,26.29-14.66,35.44v18.41l-.87.64c-1.74,1.18-2.82,2.07-4.28,3.4v23.88l-.82.64c-4.39,2.89-3.91,5.67-8.94,5.91-1.34.09-2.22-.92-2.64-1.49-.48.16-1.43.47-2.83,1.28l-2.94,1.61.08-32.11-15.59-50.85v-15.32c.95-11.52-25.4-20.45-25.79-44.69v-.79l.51-.57c-.03-.16,31.55-33.8,33.01-79.62v-.09c.85-3.06-13.29-13.2-28.34-21.15-14.31-8.11-28.97-15.26-33.74-20.03h-9.31l4.42,13.03v27.99c6.89,1.83,11.26,10.29,15.6,10.77,1.09.03,2.76,1.37,2.67,2.92-.76,4.58-6.99,8.52-8.04,14.86l-.25,1.71-1.79-.12s-15.87-1.01-28.74-1.01c-6.46,0-12.31.28-14.44.95-24.55,8.2-52.49,18.69-52.52,18.69l-1.54.61-.88-1.4c-6.68-11.26-1.03-8.14-7.25-17.05l-.79-1.18.82-1.1c9.44-12.72,11.68-14.95,18.32-20.93.12-3.15.76-14.18,4.73-20.97,5.31-7.95,17-10.25,15.9-13.01.22-.58-1.27-1.97-4.33-3.94l-1.01-.7.15-1.18s1.88-16.41,3.59-25.4c.61-2.42.73-3.91,1.37-5.31-.73-2.19-2.44-8.21-2.5-14.22.06-3.74.67-7.62,3.17-10.59,1.72-1.97,3.35-2.83,4.72-3.84v-22.42l.85-.57c3.68-2.87,4.07-2.97,4.28-6.74-.25-1.78.09-.9-1.58-1.88-1.72-.57-4.13-2.92-3.91-7.13,0-1.12.09-2.38.39-4.01.64-3.06.85-5.53.85-7.62.03-5-1.34-8.27-1.37-12.92,0-2.06.28-4.25,1.12-6.8,2.5-7.95,6.44-11.26,9.84-17.75-.03-.06,5.85-12.41,5.85-29.03v-1.13l.99-.58c11.69-6.01,4.74-32.19,13.8-53.01,4.56-9.89,7.87-19.27,14.14-25.29.09-.62.15-1.24.15-1.8.06-3.67-1.82-6.82-1.91-10.82-.06-1.88.58-3.94,2.07-5.75,1.75-2.27,3.6-3.06,5-4.11.92-3.37,5.73-19.27,11.16-29.13,3.25-5.71,3.25-8.93,10.11-15.25v-22.52l.82-.61c3.31-2.48,3.15-2.94,3.91-4.46.76-1.69,2.24-3.76,6.94-6.77l.37-.23.45-.06c4.8-.58,5.4-4.8,5.47-11.72,0-1.88-.03-3.85-.03-5.82.03-7.13,1.18-15.96,11.16-16.01,17.33.84,15.26,29.03,17.3,31.88,13.8,30.2,17.59,25.37,18.23,32.96v15.37c-.14,13.06,18.7,61.72,18.85,61.97l16.26,63.95c1.61,1.4,2.95,2.61,4.47,3.68l.9.55v22.54c4.19,4.01,5.53,7.19,5.53,9.95,0,2.22-.7,3.7-.64,4.64.03,1.06.33,2.45,4.58,5.6l.82.57v30.35l-1.49.3c-.03.4-.03.95-.03,1.55-.12,11.13,5.37,50.97,6.86,55.43l.39.25.13.93c.95,8.29,1.51,35.83,1.51,63.3m-129.32-77.27c0,3.66-.15,6.75-.76,9.04l-.18.73c2.86-.28,6.07-.51,9.38-.51,4.77,0,9.95.42,15.11,1.57,15.06,3.28,23.37,13.66,33.29,16.69,1.15.06,2.25.06,3.28.06h1.12c.18-7.1.76-33.23.76-54,0-11.51-.2-21.52-.73-25.34-3.28-3.77-3.03-10.93-4.01-18.76-.75-8.23-2.27-16.78-5.73-19.75-6.07-5.88-14.08-2.73-21.36-10.11-3.94-4.33-7.16-11.38-9.38-17.36l-.81,23.31-.03.98-.82.54c-3.59,2.55-4.42,6.52-5.76,10.77-1.07,3.73-3.43,7.98-8.99,8.94-.23,6.23-.76,27.12-5.15,33.68-.33,1.88-.45,4.52-.45,7.53,0,9.44,1.24,22.63,1.24,31.98m-213.64,92.66l-2.17.61c-7.95,1.82-4.28,8.24-10.96,15.3-.93,1.46-1.63,11.43-1.52,22.81,0,23.06,1.71,54.25,1.77,54.28l.09,2.09h-2.1c-2.06-.25-16.44,5.44-18.97,10.23l-.61.93h-58.99l-.57-.93c-3.31-5.37-3.4-5.22-3.73-5.05-.7-.09-2.7.4-6.23.4-6.36.13-7.95,2.21-9.95,4.74-1.72,2.52-3.88,6.4-9.61,6.4h-.19c-.12-.09-11.58-2.16-17.3-8.31h-40.23l-.58-.95c-2.73-4.74-5.25-4.39-5.43-9.47.57-2.58,1.82-2.9,3.52-5.06,1.4-1.46,3-3.04,4.21-4.13v-33.61l.82-.57c4.83-3.55,4.49-3.24,4.49-4.16,0-.73-.14-2.03-.17-3.97-.06-.03,0-.12-.22-.64-.15-.51-.42-1.21-.79-2.07-.67-1.66-1.6-3.79-2.67-5.95-2-4.26-4.91-8.83-5.79-9.32l-1.65-1.18,1.17-1.59c2.48-3.4,3.24-6.46,3.24-9.16.03-5.43-3.13-9.35-3.13-9.35l-.39-.45-.06-.51c-.42-2.64-.61-5.43-.61-8.29.03-16.38,5.79-35.56,5.76-45.35v-1.04l-.03-1.06.85-.64c5.19-2.92,3.43-19.84,9.71-32.81,5.71-11.13,18.3-25.45,18.09-25.09,1.71-3.09-.48-19.27,21.88-43.35,1.18-5.71,10.5-51.8,19.52-65.72,1.02-1.27,3.63-2.92,7.06-5.56,2.28-1.75,4.55-3.4,5.67-4.24.5-2.95,3.49-11.32,20.67-27.22-.73-2.79-2.52-10.04-2.55-18.12,0-5.19.73-10.65,2.98-15.59l.23-.5.4-.26c11.13-7.95,17.81-26.1,35.34-42.51v-34.89l-56.8-.56c-8.49,8.01-30.94,8.87-31.1,38.5v1.97h-2.03c-1.75-.06-6.94,1.58-11.13,4.22-4.35,2.64-7.62,6.27-7.5,9.13v41.91c-.23,4.07-3.31,8.43-10.62,20.57l-1.27,2.06-1.75-1.65c-3.74-3.37-4.95-6.55-4.89-9.13.03-1.97.45-3.43.4-4.49-.03-1.37-.28-2.8-4.35-5.79l-.73-.47-.13-.87s-1.51-10.78-2.78-17.48c-.56-3.94-.85-7.73-1.52-7.7l-1.3-.85.54-1.46s4.8-12.78,4.8-24.27c0-5.75-1.24-10.99-4.32-14.11-1.76-1.75-2.84-2.55-4.88-3.94l-.88-.61v-49.19l.42-.51s4.95-6.77,4.8-11.47l-.03-1.02-.3-2.25h2.27c72.94,0,79.65.61,151.26.61h1.97v28.52c-.45,4.43,4.7,5.09,5.15,12.53v94.43l-.7.61c-4.83,4.11-6.37,11.13-6.33,17.68-.03,7.37,1.79,13.77,1.79,13.77l.45,1.37-1.18.79c-15.07,10.49-22.78,52.37-31.83,63.12v24.3l-1.21.54s-20.9,8.99-24.73,19.81c-.96,2.47-1.34,5.88-1.34,9.28,0,6.71,1.43,13.29,1.43,13.29l.34,1.61-1.52.64c-17.08,6.4-44.51,83.13-43.97,87.54v13.96l-2.14.2,1.12,1.04-.16.23c-.22.34-.57,1.01-.96,1.93-.79,1.75-1.83,4.39-3.05,7.58-2.42,6.4-5.51,15.05-8.71,23.94-6.12,16.72-12.44,34.04-16.63,40.48,2.83,4.07,3.04,4.04,3.23,3.88.51.03,2.11-.31,4.64-.31,4.58.15,6.49-2.58,26.3-12.41,4.27-1.46,9.35,1.46,24.52-5.56,2.39-.69,8.52-12.19,15.96-22.97,7.28-10.37,16.8-20.83,29.58-21.81.79-5.43,4.07-16.6,9.44-21.85l1.85-1.76,1.24,2.17c.95,1.71,1.74,2.82,2.73,4.16,16.41-7.61,9.13-15.65,17.68-26.05l.56-.7h14.61l-.11,2.06s-.06,2.05-.06,5.09c-.06,6.83.45,19.27,2.7,24.49l.87,2.06Zm-440.7,34.7c-.03,6.26,3.6,18.76,3.6,30.65,0,2.76-.15,5.5-.67,8.17-2,10.59-8.68,25.57-8.88,25.94,0,.03-10.68,15.4-14.88,26.05-5.09,12.81-7.19,35.35-7.19,35.35l-.09,1.18-1.06.51s-21.46,9.89-33.29,18.66c-10.59,7.76-21.3,14.57-23.85,21.72l-.4,1.16-1.15.17s-25.39,3.59-32.85,6.51c-1.01.35-1.43.57-1.4.65-1.46,1.83-3.06,3.01-4.98,3.07-5.92-1.12-7.31-7.95-11.29-7.47-1.54-.03-4.05.91-7.64,4.39-2.55,5.37-10.31,5.53-18.82,5.78-12.7,0-27.96-2.34-31.36-2.95-1.77.88-3.82.95-6.16.98-5.6,0-12.84-1.21-16.84-1.17-.96-.05-1.73.06-2.02.16l-1.07,1.86-1.82-1.68c-2.28-2.04-5.25-4.8-6.19-5.34l-3.31-2.19,3.68-1.34s11.99-4.7,15.65-8.22l-.06-.03.06-.06c.09-.16.22-.48.42-.86.34-.85.79-2.1,1.3-3.63.95-3.07,2.13-7.28,3.34-12.08,2.47-9.5,5.05-21.15,6.74-29.89,0-30.25,1.8-45.76,1.8-61.62,0-7.89-.43-15.93-1.77-26.07-.48-3.73-2.1-31.61-4.55-51.81,0-32.65,1.88-66.16,1.88-85.97,0-3.76-.09-7.06-.26-9.7l-.06-1.91,1.88-.16c4.1-.33,5.82-3.57,6.24-4.58l-1.18-25.85-3.97-8.34.54-37.78c.7-5.5,4.95-11.16,4.89-11.09.45-.61.88-4.24.82-7.89,0-5-.43-10.4-.61-11.95l-5.65-9.31V99.4l.82-.61c4.92-3.55,4.83-3.55,4.74-4.22.03-.87-.37-3-.37-6.71s.22-5.58.22-6.12l-.12.03c-.51-.47-1.46-1.34-2.87-3.04-1.07.09-2.73.19-4.41.28-.26.51-.76,1.15-1.82,1.24-1.4-.31-1.69-.61-2.25-1.12h-.17c-.61,0-.92.05-1.62-.12-.09-.16-1.15.09-1.55-1.97.22-.95.47-1.37.73-1.58-1.15-1.21-2.21-2.39-2.58-2.93L5.62,56.16c-2.25-3.73-3.37-4.52-3.79-4.77-.37-.08-2.25-2.21-1.74-3.43,0-1.06.06-2.55.06-5.39.06-4.92-.23-6.26,1.07-8.14,1.12-1.3,1.79-1.3,4.4-5.46l.57-.99h27.53c3.73-2.61,11.61-3.37,20.65-4.71,9.69-1.21,19.67-1.94,23.04-1.94l27.3.93c27.53-.03,37.67-2.67,52.17-2.7,6.43,0,13.68.53,23.57,2.13l1.3.19.31,1.27c2.03,8.01,9.89,11.41,13.74,14.72.7-.09,1.73-.19,3-.19,3.43,0,8.68.61,13.45,3.85,17.23,11.74,26.61,39.87,26.7,54.68,0,14.86,3.34,28.69,3.37,39.75,0,6.49-1.24,12.25-5.08,15.96l-19.18,35.91c-7.19,13.48-24.27,34.05-30.06,40.91.39.7,2.24,3.21,5.88,5.19,4.16,2.42,10.25,4.71,17.65,5.47,4.61.74,6.86,4.58,6.68,8.01-.09,6.82-5.37,14.38-5.95,15.11-.09.03-.42.51-.42,1.57-.03,1.34.54,3.31,1.34,4.74.84,1.52,1.85,2.03,1.91,2,0,0,.22.09.85-.85l1.27-2.06,1.75,1.71c7.95,7.79,8.98,9.98,9.16,12.11.16.7-1.43-.67,4.8,4.15l1.09.79-.29,1.3s-4.28,17.39-4.28,35.29c0,8.93,1.07,17.93,4.13,24.87,1.43,4.26,10.11,6.48,10.95,13,0,1.43-.61,2.73-1.63,3.91,0,1.88.06,6.83.06,12.14,0,3.42-.03,6.91-.06,9.92,0,.7-.03,1.34-.03,2.03,0,16.29,3.03,31.83,3.03,46.05,0,11.13-1.91,21.52-8.82,30.46-.28.31-.64,1.37-.61,3.12M165.69,112.41c.15-.58-.36-1.69,1.13-2.48l7.48-5.28c-8.52-2.89-15.93,2.28-23.12-12.34l-2.36-.03-22.85,3.28,1.4-3.24c.22-.56.37-1.13.4-1.71-.58.31-1.27.64-1.94.88-1.23,3.7-1.04,5.43-1.13,7.31.06,2.36-1.37,4.64-5.12,6.71v98.73c2.03-.67,3.79-.92,5.28-.92h.22c2.79,0,4.81,1.24,5.57,1.73,10.26-3.09,5.95-28.3,35.23-31.8-.03-2.61-.15-6.82-.15-11.52.37-11.63-.03-25.88,5.05-31.47-1.27-3.6-4.95-13.87-5.08-17.84m4.22,351.78c.12-3.48,1.94-6.55,1.82-8.74-.06-1.38-.29-2.3-2.23-3.67l-2.55-1.55,2.42-1.72c1.43-1.06,1.88-2.16,1.94-4.13.19-6.07-6.8-16.8-6.96-26.91-.03-4.55,1.65-9.19,6.16-12.72-.19-12.11-1.97-13.71-3.69-15.54-2.19-2.11-4.95-5.15-4.77-16.07.15-5.65,5.15-15.96,5.06-21.94-.06-2.22-.54-3.15-1.46-3.59l-1.73-.96.86-1.71c.99-1.91,1.34-3.73,1.34-5.5.03-6.4-4.89-11.92-4.92-11.92l-2.83-3.15,4.19-.2c.64-.03,1.07-.12,1.27-.19-.2-1.24-3.73-5.06-4.04-8.77-.06-1.12.54-2.48,1.37-2.93.57-.59.76-1.07.76-1.86.37-4.07-8.31-12.25-8.1-12.05-9.89-5.42-21.24-16.32-21.38-16.44l-12.75-13.17c.16,6.71.39,18.88.39,30.01,0,8.1-.12,15.65-.54,20.23l-.06.61-.39.47c-1.91,2.3-2.82,7.13-2.79,12.53-.03,10.77,3.18,23.37,3.18,23.37l.12.45-5.46,26.64-.99.42c-2.58,1.09-3.62,2.55-3.91,5.31l-.06.64c.06,2.67,1.3,4.61,3.97,5.73l1.24.5v97.43l-.51.61c-2.7,2.94-4.35,3.57-4.67,5.98-.31,1.88-.53,3.09-.79,3.98-.34.51-.03,1.12-.82,1.72.12,5,.28,16.5.28,41.14.03,0,.42,12.69.7,18.06l.51.48c.45.54.45,1.02.45,1.27-.39,2.33-3,6.46-5.82,12.02-1.33,2.48-2.67,4.94-3.73,6.77,3.98-.53,10.06-1.55,13.8-2.98l12.05-10.91.67-.03c8.73-.16,19.66-18.54,26.97-24.13,7.41-6.07,4.04-27.06,7.25-44.2l.16-.76.48-.35h.03c.06-.19.22-.53.45-.95.34-.86.82-2.1,1.3-3.52,1.01-2.94,2.16-6.88,3.31-10.92,2.19-8.01,4.13-16.94,4.1-19.33v-.03c-.45-.91-.63-1.91-.63-2.79m1065.94,88.45c.95,1.72,1.97,4.21,1.97,7.52,0,2.67-.61,5.71-2.13,9.53-2.84,6.52-1.03,8.37-13.38,68.43l-.45,2.14-2.03-.61c-.23-.2-18.8-5.57-23.57-10.04-27.47-26.72-34.69-28.27-46.27-28.31h-7.41l-.47.03-1.57.15-.54-1.36c-.25-.67-.31-1.28-.31-1.94.15-9.31,15.45-44.2,18.21-59.17,1.24-6.27,2.14-32.5,2.14-50.24,0-8.07-.23-14.63-.57-16.75v-.23c0-2.67-3.18-24.77-8.27-46.01-4.67-21.33-12.9-42.51-18.31-42.93l-1.72-.45.22-1.77c1.57-12.31,4.94-29.13,4.91-35.65.06-1.21-.06-1.82-.12-1.88-7.61-14.44-22.93-43.18-31.77-47.12.31,2.64.59,4.8.59,7.05,0,4.97-1.46,9.7-6.13,19.59-2.06,4.13-5.08,8.37-4.99,11.48l.03.45.09.54-.19.42v.73c-.03,13.57,13.26,121.91,13.29,132.05v.22l.13,1.21-1.09.64-.34.39c-.3.34-.7.82-1.02,1.43-.76,1.15-1.4,2.67-1.4,4.13l.06.45c-.31,1.17,3.85,4.07,4.49,9.15.51,6.36,1.04,13.83,1.04,21.47,0,11.07-1.01,22.39-4.64,31.16.67,11.38,5.42,39.81,5.42,53.25,0,1.82-.06,3.42-.33,4.75l-.06.43-.28.39c-1.79,2.64-2.61,2.73-4.61,4.04.25,2.13.82,5.28.82,10.29,0,6.88-1.03,17.24-4.89,33.82l-1.54,6.54-2.28-6.32c-11.35-30.91-29.1-49.58-44.05-61.6-14.97-12.56-27.06-16.26-28.1-23.91.25-.29,18.06-64.08,25.97-71.61.67-1.09,1.15-4.11,1.12-7.51,0-4.86-.7-10.59-1.24-14.27-1.52-1.37-2.61-2.33-4.42-3.51l-.91-.62.06-1.15c.06-1.09.06-17.62.06-38.86,0-40.35-.06-98.25-.06-104.29-1.91-3.51-.92-8.82-1.91-10.34l.06-.03-.79-.51-2.48-22.09c-2.16-3.15-3.5-9.1-4.32-9.19l-.9-.57-.03-.98c0-.06-.13-5.51-.13-10.95,0-2.41,0-4.83.13-6.77-1.1-1.91-1.13-4.16-1.65-6.91-.39-3.11-.96-6.48-1.46-7.66l.03-.12-.93-.64.09-1.15v-1.74c.06-3.35-.37-10.88-2.44-15.11-2.03-2.67-1.47-6.4-2-11.35-.17-4.36-.61-9.25-1.03-10.34l-.64-.42-.28-26.61c-4.27-4.25-5.37-6.67-5.37-8.9,0-.87.15-1.43.12-1.63.03-.03.13-.89-4.27-4.07l-.7-.51-.09-.82c-.79-6.26-1.21-15.11-1.21-23.97s.42-17.78,1.21-24.04l.03-.67.48-.48c8.53-8.34,32.25-20.23,48.04-42.2-4.01-1.46-14.63-4.22-16.78-4.64-.19.15-.51.57-.89,1.06-.73.92-1.76,2.41-3.79,3.01-1.82.51-3.24,1.37-5.53,1.4-1.6,0-3.21-.47-5.06-1.55l-.95-.54-.06-1.07c-.39-8.15-9.58-18.48-19.17-26.49-8.85-7.55-17.05-12.73-19.78-15.05l-18.87-4.1.36-3.94,74.79-2.06c6.74-3.12,8.14-3.6,13.03-3.51,5.06-.28,6.11,1.94,8.76,5.57h27.25l.31.54c.3.12.7.31,1.25.47,1.15.48,2.79,1.06,4.76,1.69,3.94,1.37,9.16,3.01,14.35,4.67,10.17,3.21,20.25,6.23,20.18,6.29,1.27,0,3-.06,4.94-.06s4,.06,6.25.39c8.95,1.18,17.02,7.02,23.57,12.41,6.13,5.4,11.95,10.29,12.29,9.89h1.27l26.43,55.8c.82,2.45.93,6.62.93,11.63,0,9.58-.73,21.32-.73,21.32l-.14.98-.73.55c-.06,0-1.27,2.42-1.94,5.09-.82,2.38-1.24,4.63-2.41,6.38.09,2.93.12,6.16.12,9.22,0,6.65-.12,12.53-.22,13.01-9.67,38.02-27.57,68.58-60.61,69.82.03,4.64.15,7.47.15,9.38.06,4.01-1.07,4.84-3.27,6.94.48.03.9.03,1.33.03,3.88.06,7.16-1.43,11.49-1.51,6.13,0,12.84,3.45,23.97,16.89,7.44,3.4,5.59,12.53,6.64,15.99.31,1.3.54,1.4.92,1.52,3.97,1.47,6.15,2.33,7.64,3.15,1.49.7,2.61,2.55,2.43,3.79-.03.73-.12,1.21-.06,1.78,0,1.1.17,2.76,1.66,5.9,1.55,3.98,2.07,15.98,4.01,17.31,2.06,3.87,2.13,15.73,2.7,28.37.28,12.11,1.4,25.31,2.13,25.43v.03c1.34,1.18,1.02,2.28,1.54,3.73.31,1.68.59,3.65,1.04,5.59.73,4.13,2.33,6.61,3.27,6.43.33,0,1.02-.2,2.13-.87l1.78-1.13.98,1.83c2.61,5.09,9.07,56.49,9.83,60.59l.12.82-.4.7c-1.27,1.3-3.18,16.54-3.18,18.99.36.58,2.16,1.24,5.28,2.01l.79.18.42.7c1.97,3.31,6.68,13.59,6.96,18.96l.23.73-.58.82c-1.69,2.48-2,3.79-2.03,5.28-.06,2.8,1.97,7.22,1.97,17.27,0,6.27-.76,14.69-3.25,26.91l.25.34c.27.48.71,1.15,1.19,1.97m-94.34-370.2c0-5.56,1.13-11.21,1.13-11.32l.51-2.41,1.18.54c.22-.45.48-1.09.7-1.73.64-1.37.76-2.82,1.91-4.1l.06-10.81s.61-2.17.61-6.02c0-4.86-.99-12.17-5.43-20.25-.06-.09-7.89-11.13-17.21-22.2-9.16-11.15-20.8-22.06-25.21-21.67-1.18-.03-2.24-.06-3.24-.06h-1.09v152.66c1.49.12,3.79.25,6.13.25,1.97.03,4.1-.09,5.73-.4,8.4-1.51,17.3-7.61,19.42-10.43,4.76-5.88,11.52-29.52,15.01-38.16-.19-1.25-.22-2.55-.22-3.88m290.72,61.64c-.06,11.24-.43,20.88-2.03,25.56l-.22.61-.51.39c-1.4.5-3.95,9.41-7.08,13.38-.11,1.18-.14,2.48-.14,3.79,0,6.16.87,13.48.87,20.57,0,6.19-.64,12.24-3.31,17.26-4.49,10.26-10.12,15.87-12.09,17.73l-3.34,25.45c-4.86,12.53-1.94,15-3.8,18.69.34,4.86,2.95,43.63,2.95,72.73,0,12.78-.48,23.58-2.06,29.7-3.53,8.17-3.98,17.09-3.98,26.55,0,2.55.03,5.11.03,7.72-.03,9.8-.39,20.01-4.31,29.73l-5.42,29.1c-4.51,12.5-4.61,15.2-10.72,22.61-2.73,5.61-3.91,7.28-5.53,8.43-1.46,1.06-1.69.64-4.27,3.52-2.28,5.98-12.84,7.64-24.98,11.52-12.89,3.52-27.61,7.22-34.8,11.13-.57.16-1.04.19-1.49.19-5.47-.33-12.53-6.62-15.11-6.27l-.34.06c-2.18,3.94-7.92,4.78-14.67,6.4-7.2,1.43-15.51,2.3-20.76,2.3-2.39-.03-3.82-.03-5.31-.72l-2.34-1.26,1.89-1.88c7.55-7.61,15.2-20.32,16.53-35.46.03-.79.06-1.68.06-2.61.05-11.86-6.04-28.26-6.07-28.26l-.67-1.82,1.78-.7c7.41-2.67,22.96-9.95,21.88-12.72,0-1.54-.31-2.21-.39-2.3l-.22-.06-.51-.06c-.98,0-3.01.06-4.1-2.28l-6.01-14.86-10.52-24.27,9.55-94.59c-11.89-12.98-22.93-50.21-23.21-53.78v-15.36c.43-4.44-4.69-5.11-5.16-12.42,0,0-1.24-18.58-1.24-32.76.06-6.13.13-11.1.92-14.24-1.3-1.21-2.34-2.08-3.94-3.15l-.98-.64,2.13-36.02c-1.15-2.08-1.21-4.75-1.91-8.15-.57-3.74-1.21-7.86-1.82-9.41l.08-.22-.93-.64v-105.35l.93-.61c1.65-1.15,2.74-2.17,4.26-3.46v-40.65l.88-.61c1.66-1.1,2.76-2.16,4.27-3.43v-28.93c-5.31-5.09-44.23-42.08-46.05-44.3l-2.58-3.24h29.79l.61,1.01c1.02,1.85,1.94,3.03,3.12,4.61h17.45l.33,1.6c-.36,5.14,24.51,8.08,36.35,20.7h17l.61.98c1.76,3,3.37,4.58,5.67,7.41h16.97l.61.99c1.06,1.85,1.94,3.06,3.12,4.58h22.12l.57.98c1.06,1.88,1.91,3.09,3.12,4.61h24.01l.61.96c7.7,12.59,22.78,20.79,25.91,26.7,17.56,36.86,13.99,40.07,20,43.91l.87.61-1.43,53.33c1.27,2,1.8,4.95,2.95,8.49,1.09,3.8,2.36,8.01,2.97,8.83l.59.42.08,1.01s1.93,28.15,1.93,50.6m-78.25,87.69c-.03-14.35,7.48-20.51,10.12-22.2.92-5.34,4.64-30.46,12.2-37.2v-51.13c-3.79-3.31-5.43-10.29-7.25-17.33-1.79-7.41-3.4-15.42-3.97-16.02-5.98-8.88-18.45-11.99-19.66-25.79-12.29-1.33-13.96-11.99-18.75-11.01-9.86-.03-14.91-.76-22.36-.76-2.35,0-4.92.06-7.92.25l-2.07,19.34,1.46,6.68s2.18,56.17,2.18,77.23c-.03,1.85-.03,3.31-.03,4.52l.13.12c.54.99,1.15,2.27,1.68,3.49,1.15,2.55,2.17,5,2.23,5l.09.39v.37c-.42,6.24,6.32,31.16,9.29,31.77l1.06.57-.74,246.62c7.64-9.35,24.81-33.23,24.75-57.17v-3.21c5.79-19.78,12.17-26.39,14.11-37.65l-.03-.47c.09-6.18-.09-101.31,3.59-113.87-.03-.87-.09-1.73-.09-2.55m-877.03,213.24l-3.2-1.27c-3.6-1.43-5.48-1.63-7.58-1.66-1.04,0-2.19.11-3.55.11h-1.06l-.37-.51-.61-.09c-1.12,0-3.57.43-7.86,2.59l-1.06.55-.95-.67c-1.46-1.16-10.34-2.22-20.23-2.13-15.36-.06-34.72,1.78-39.9,3.91-7.34,7.13-9.32,8.9-12.05,9.22h-.09c-1.15,0-1.97-.73-2.13-.92v-.03l.06-.03-.06.03c-3.31-.99-3.51-3.6-7.13-5.85l-1.75-1.24,1.3-1.63c14.89-18.63,6.58-13,23.66-24.44,4.01-12.19,4.49-54.19,4.38-66.89v-4.86l.87-.54c4.7-3.56,4.44-3.56,4.52-4.8.03-.88-.17-2.45-.23-4.73.45-3.73-4.98-6.83-5.15-16.76.17-6.94,2.33-16.99,6.84-22.01l-1.69-220.48.76-.61c1.66-1.34,2.94-2.14,3.76-2.67.39-.23.64-.39.76-.45l-.06-.61c.15-.86-1.37-1.15-4.28-2.83l-.84-.61-6.65-112.21c-1.24-4.91-5.68-6.52-10.9-8.06-4.24-1.27-9.67-2.41-10.98-7.25-4.83-.03-6.77-.34-8.45-2.16-1.41-1.65-1.6-3.06-6.49-6.58l-1.69-1.21,1.27-1.61c1.91-2.48,4.42-5.67,5.03-6.71l.73-1.4,1.52.43c5.18,1.51,29.07,2.51,51.58,2.48,20.66.03,41.14-.92,45.12-2.45l1.52-.61.87,1.51c1.91,3.21,3.59,4.73,6.26,8.07l.45.55v10.62l-1.46.37c-12.59,3.42-26.24,15.02-25.96,24.66.17,7.66.99,7.11,1.54,7.56,1.52.51,4.01,2.86,3.59,9.19.13,4.98-2.61,7.72-4.61,9.19-2.09,1.71-3.01,2.13-3.12,4.77,0,16.6,2.36,61.33,2.36,99.24,0,18.35-.57,35.14-2.19,46.55,1.74,1.82,1.68,4.39,2.31,7.1.51,3.24,1.03,6.86,1.66,8.14l.15.33.79.47,2.82,16.38-1.04.73c-2.06,1.43-3.21,2.13-4.8,3.88-2.94,3.15-3.82,7.86-3.82,12.59s.91,9.5.95,12.41c-.06,1.46-.54,2.55-.54,5.98,0,2.8.36,7.05,1.73,13.35.61,3.34-.03,10.26.73,13.93.19,1.21.42,1.52.51,1.49l.82.45.12.95c.51,3.37.67,6.83.67,9.98,0,6.37-.64,11.49-.67,11.55l-.12.89-.76.51c-2.03,1.37-3.09,2.16-4.83,3.91-3.46,3.59-4.39,6.19-4.42,9.22-.13,6.13,4.97,14.66,5,29.7v2.07c.43,2.92,5.47,17.55,7.08,19.42l.81.61-2.78,39.2-.85.54c-2.19,1.49-3.31,2.07-4.67,3.82-1.66,2.03-2.13,3.87-2.19,6.04,0,3.2,1.43,7.11,2.55,11.8,4.25,17.58,2.79,7.78,35.06,31.05l.67.48,2.63,18.99Zm182.95,112.47h-72.32l-.56-1.02c-1.06-1.79-1.97-2.98-3.15-4.58h-16.92l-.58-.95c-3.04-4.81-4.22-4.88-5.28-4.94-.67-.03-1.68.23-3.04.3-2.58,0-5.54-1.27-9-5.57h-49.58c-8.1-.47-10.17-5.05-11.6-7.44-10.28-.82-74.73-.95-108.81-.95h-22.48l-.61-.93c-1.82-3.82-14.69-7.65-15.08-7.44h-18.79c-3.76,2.46-30.06,19.58-32.25,26.61l-.64,1.54-1.58-.3s-16.6-2.73-30.49-2.73c-6.94-.03-13.29.79-15.9,2.48l-1.79,1.1-.99-1.8c-1.2-2.08-2.16-3.24-4.57-4.91l-1.75-1.27,1.3-1.62c3.68-4.73,3.34-2,4.77-8.88l.19-.98,15.14-8.04c5.91-5.85,5.09-3.31,18.23-15.26v-23.94l.89-.58c1.33-.79,4.39-2.58,4.3-5.31.03-2.16-1.51-3.31-4.33-5.37l-.86-.61v-42.54l.89-.61c1.66-1.12,2.79-2.14,4.3-3.45v-18.24l.82-.61c4.83-3.53,4.44-3.21,4.44-4.16,0-.7-.12-2.03-.12-3.94.03-6.72-4.92-10.56-9.47-13.77l-.86-.61-.17-71,1.24-.51c3.48-1.66,2.27-1.04,4.04-3.91-.91-6.71-1.23-13.03-1.23-18.51,0-11.32,1.3-19.05,1.34-19.11l.12-.85.7-.48c1.65-1.1,2.8-2.13,4.28-3.4v-56.02l.9-.57c1.16-.61,5.91-7.22,5.71-12.19v-.88c-.31-4.25-4.25-9.32-5.71-10.17l-.9-.57v-78.35c-1.46-1.34-2.55-2.3-4.28-3.45l-.85-.56v-42.59l.82-.61c4.01-2.83,5.75-5.5,9.56-9.05.26-2.97,1.09-13.93,1.09-23.76,0-5.37-.29-10.47-.96-13.4-1.59-1.4-2.67-2.34-4.47-3.56l-1.79-1.24,1.34-1.65c2.25-2.7,8.77-19.81,8.62-24.73v-.4c-1.21-14.38-8.77-28.52-8.94-28.77-.22-1.91-6.22-3.18-10.29-3-.82,0-1.52.03-2.07.03l-.42.82-1.82-1.01c-6.04-4.55,2-7.61-26-28.06l-1.68-1.27,1.3-1.61c3.68-4.67,3.31-2,4.74-8.91l.31-1.58h9.22l.61.99c1.06,1.83,1.91,3.04,3.12,4.57h41.46l.58.96c5.91,9.53,9.58,10.71,11.92,10.71,1.72.03,3.24-.82,5.54-.88.79,0,1.71.22,3.04,1.18.06,0,16.16,20,22.87,24.73l.82.57v52.31l-.86.61c-3.73,2.86-4.15,2.92-4.3,6.74v.31l-.06.14c0,.34.45,3.94,9.53,10.51l.81.57v24.42l-.87.64c-1.68,1.12-2.8,2.03-4.25,3.37v109.93c4.64,4.1,7.31,4.3,10.08,9.8,2.45,5.12,2.94,18.57,3.03,35.29,0,33.16-2.8,77.37-2.8,77.37l-.08.99-.79.56c-1.74,1.15-2.83,2.08-4.32,3.42v37.29c1.55,1.3,2.89,2.45,4.35,3.46l.67.45.12.82c.39,2.07.45,5.82.48,10.23,0,8.73-.43,19.5-.43,19.53l-.08,1.58-1.58.26c-6.33,1.01-5.82,5.17-8.46,13.12,3.91,5.57,5.03,4.66,4.94,9.79v1.66c.4,6.26-1.06,7.11-5.12,10.68v23.85l-.86.64c-1.75,1.18-2.87,2.1-4.3,3.37v35.11l-.85.61c-3.31,2.42-3.18,3.43-4.42,7.31-.28.88-.37,1.46-.37,1.72-1.45.31,5.37.37,5.65,15.25,9.47.2,16.51,1.37,25.28,1.37,4.46,0,9.43-.31,15.43-1.2,4.28-6.61,6.41-7.34,14.84-12.68.76-.17,1.59-.3,2.39-.3,8.8.16,24.64,8.01,42.12,7.98,8.34,0,16.93-1.75,25.15-6.92,1.12-3.22,4.36-3.37,8.62-4.49,4.77-.91,11.35-1.61,19.36-2.13,15.9-1.02,37.18-1.36,58.8-1.36,46.02,0,93.58,1.61,93.62,1.61l1.9.03v66.08l.06-.03c.17.31.39.82.64,1.4.54,1.24,1.38,2.89,2.33,4.83,1.91,3.79,4.46,8.52,6.96,12.31l2.09,3.12ZM1454.5,35.77c0,6.46-3.15,15.17-24.55,15.17s-24.83-8.71-24.83-15.17V15.17c0-6.3,3.37-15.17,24.83-15.17s24.55,8.87,24.55,15.17v20.6Zm-4.32-20.99c0-4.89-3.35-10.71-20.23-10.71s-20.45,5.82-20.45,10.71v21.38c0,4.89,3.49,10.84,20.45,10.84s20.23-5.82,20.23-10.74V14.78Zm-26.72,15.07v10.5c0,.57-.22,1.06-.85,1.06h-2.58c-.73,0-.95-.48-.95-1.06V11.54c0-.7.22-1.04.95-1.04h11.04c8.89,0,11.08,4.28,11.08,8.29v2.81c0,2.98-1.43,6.29-5.94,7.66l4.81,11.1c.15.57-.3,1.06-.96,1.06h-2.7c-.57,0-.79-.48-1.01-1.06l-4.46-10.5h-8.43Zm0-15.87v12.37h7.13c5.03,0,7.16-2.45,7.16-5.03v-2.31c0-2.58-2.01-5.03-7.16-5.03h-7.13Z"/>
    </g>
  </g>
</svg>