<?xml version="1.0" encoding="UTF-8"?>
<svg id="Capa_2" data-name="Capa 2" xmlns="http://www.w3.org/2000/svg" viewBox="0 0 853.36 1000">
  <defs>
    <style>
      .cls-1 {
        fill: #ced4da;
        fill-rule: evenodd;
      }
    </style>
  </defs>
  <g id="Layer_1" data-name="Layer 1">
    <path id="path2" class="cls-1" d="m76.58,0h700.21C832.71,0,853.36,21.12,853.36,78.37v690.8c0,6.5,0,51.3-43.92,74.98-29.29,15.78-143.84,64.33-343.67,145.64-17.65,8.28-26.17,10.43-39.08,10.18-14.51,0-19.95-1.96-39.28-10.18-199.69-83.95-314.18-132.5-343.48-145.64C0,824.42,2.09,799.74.81,787.25c-.57-6.01-.84-12.04-.8-18.08V78.37C0,21.12,20.65,0,76.58,0h0Zm640.93,704.11l.15-1.69v-3.69l-.15-1.69-.16-1.54-.62-3.08-.31-1.38-.46-1.39-.48-1.4-.61-1.22-.79-1.4-.79-1.22-.93-1.38-.93-1.24-1.1-1.07-1.1-1.24-1.24-1.08-1.24-1.08-1.26-.78-1.24-.93-1.24-.76-1.41-.78-1.41-.77-1.55-.78-1.57-.62-1.55-.78-1.72-.58-1.41-.48-1.4-.47-1.57-.45-1.4-.47-1.55-.47-1.55-.47-1.58-.31-1.72-.47-1.55-.45-1.72-.32-1.72-.46-1.72-.47-1.72-.47-1.55-.3-1.41-.47-1.41-.31-1.24-.47-1.24-.3-1.88-.61-1.72-.63-1.55-.61-1.24-.77-1.43-.78-1.08-1.07-.64-.92-.77-1.7-.16-2v-.32l.16-1.52.62-1.4.93-1.39,1.41-1.23,1.1-.61,1.24-.61,1.41-.31,1.57-.32,1.7-.3h3.43l1.41.16,1.57.15,1.55.16,1.55.3,1.55.31,1.57.3,1.55.47,1.57.47,1.71.47,1.26.61,1.4.47,1.24.61,1.41.61,1.25.63,1.41.61,1.24.78,1.41.6,1.26.93,1.23.78,1.4.77,1.26.92.93-1.22.78-1.24.94-1.23.93-1.22.93-1.4.78-1.22.94-1.24.95-1.23.77-1.22.93-1.24.95-1.23.78-1.22.92-1.4.95-1.22.93-1.24.78-1.23.94-1.24-1.24-.91-1.24-.92-1.26-.93-1.24-.78-1.41-.91-1.24-.78-1.41-.77-1.41-.78-1.24-.62-1.41-.76-1.57-.62-1.4-.61-1.41-.61-1.4-.47-1.57-.63-1.4-.3-1.41-.47-1.56-.46-1.4-.3-1.56-.32-1.55-.31-1.42-.3-1.55-.31-1.72-.16-1.55-.31-1.73-.15h-1.55l-1.73-.16-1.72-.16h-6.69l-3.11.32-1.57.15-1.55.16-1.41.3-1.55.31-1.43.3-1.39.31-1.24.32-1.43.45-1.55.63-1.55.45-1.41.63-1.41.78-1.41.6-1.41.78-1.24.78-1.24.91-1.26.93-1.08.78-1.26,1.07-1.08,1.24-1.1,1.07-1.1,1.23-.93,1.23-.93,1.24-.79,1.38-.78,1.39-.63,1.4-.62,1.38-.62,1.39-.31,1.38-.48,1.4-.61,2.76-.16,1.55-.15,1.38-.16,1.54v3.55l.16,1.68.15,1.55.16,1.53.31,1.39.31,1.54.48,1.22.46,1.4.48,1.22.62,1.07.78,1.39.78,1.24.78,1.07.94,1.09.95,1.07,1.08,1.09,1.1,1.07,1.1.94,1.24.78,1.26.91,1.39.78,1.26.77,1.55.78,1.41.77,1.55.61,1.57.62,1.55.61,1.72.61,1.41.47,1.41.47,1.39.47,1.57.31,1.41.47,1.55.45,1.55.31,1.57.47,1.55.3,1.72.47,1.57.31,1.7.47,1.57.3,1.55.47,1.41.31,1.41.47,1.24.3,1.1.31,1.87.77,1.56.63,1.41.61,1.24.61,1.25.93,1.09.91.79,1.08.62,1.54.16,1.84v.31l-.16,1.54-.47,1.38-.62,1.24-.94,1.07-1.24.94-1.1.61-1.26.47-1.39.3-1.41.31-1.56.3-1.72.16h-3.42l-1.72-.16h-1.55l-1.57-.3-1.72-.15-1.55-.32-1.55-.31-1.57-.3-1.41-.47-1.55-.46-1.55-.47-1.43-.61-1.39-.47-1.41-.62-1.41-.61-1.41-.61-1.24-.78-1.41-.61-1.24-.78-1.41-.92-1.26-.78-1.39-.91-1.26-.93-1.39-.93-1.26-.92-.93,1.24-1.1,1.08-.93,1.23-1.1,1.22-.93,1.08-.93,1.24-1.1,1.23-.93,1.08-1.1,1.22-.93,1.1-1.1,1.22-.93,1.23-.93,1.08-1.1,1.24-.93,1.22-1.1,1.07-.93,1.24,1.24,1.08,1.1.93,1.24.92,1.24.93,1.26.91,1.24.93,1.24.78,1.24.78,1.43.77,1.24.76,1.39.78,1.43.62,1.39.76,1.41.61,1.41.62,1.55.61,1.41.47,1.55.47,1.41.61,1.57.47,1.55.46,1.41.32,1.55.45,1.57.32,1.55.31,3.12.61,1.55.16,1.57.31,1.7.15,1.57.16,1.55.16h1.72l1.55.15h6.56l1.55-.15,1.73-.16,1.56-.16,1.41-.15,1.55-.16,1.57-.3,1.4-.31,1.41-.3,1.55-.31,1.42-.47,1.55-.47,1.55-.47,1.55-.61,1.58-.61,1.4-.78,1.4-.62,1.42-.78,1.25-.91,1.24-.76,1.24-.93,1.1-.91,1.24-1.1.93-.91,1.1-1.08.93-1.08.78-1.24.94-1.23,1.57-2.46.62-1.38.62-1.24.62-1.38.48-1.55.31-1.38.46-1.54.33-1.54.15-1.69.16-1.54h0Zm-109.36,30.77h1.57v-25.4h-61.13v-19.08h54.26v-23.86h-54.26v-18.33h60.34v-25.41h-90.12v112.07h89.34Zm-113.91,0h1.55v-112.07h-31.95l-.79,1.23-.78,1.39-.94,1.22-.79,1.4-.78,1.22-.78,1.4-.93,1.22-.79,1.38-.79,1.24-.78,1.22-.93,1.38-.78,1.24-.79,1.38-.79,1.24-.92,1.36-.78,1.24-.8,1.24-.78,1.36-.78,1.24-.93,1.39-.78,1.23-.8,1.37-.78,1.24-.94,1.38-.77,1.22-.78,1.24-.8,1.38-.93,1.24-.78,1.38-.78,1.22-.78,1.4-.94,1.22-.78,1.38-.8,1.24-.77-1.24-.78-1.38-.96-1.22-.77-1.4-.78-1.22-.78-1.38-.78-1.24-.96-1.38-.77-1.24-.78-1.22-.78-1.38-.78-1.24-.96-1.36-.77-1.24-.78-1.39-.78-1.23-.79-1.37-.95-1.24-.77-1.23-.78-1.37-.8-1.24-.93-1.38-.78-1.24-.78-1.38-.78-1.22-.8-1.24-.93-1.38-.78-1.22-.78-1.4-.78-1.22-.8-1.4-.93-1.22-.78-1.39-.78-1.23h-31.96v112.07h29.63v-65.97l.93,1.24.78,1.4.94,1.22.78,1.4.94,1.23.78,1.39.94,1.23.78,1.39.94,1.23.78,1.39.94,1.23.78,1.4.92,1.24.79,1.38.93,1.24.79,1.38.95,1.24.93,1.38.78,1.24.92,1.4.79,1.23.95,1.39.78,1.23.94,1.38.78,1.24.92,1.38.79,1.24.93,1.38.79,1.26.93,1.38.79,1.23.93,1.39.79,1.23.93,1.39h.62l.79-1.22.93-1.4.79-1.24.93-1.23.79-1.39.93-1.23.78-1.24.78-1.38.95-1.24.78-1.22.94-1.25.78-1.38.93-1.23.78-1.22.79-1.4.93-1.24.79-1.23.93-1.39.78-1.23.94-1.24.79-1.38.78-1.24.94-1.22.78-1.4.93-1.23.78-1.24.94-1.22.78-1.4.78-1.23.95-1.24.78-1.38.93-1.24.79-1.22.93-1.4.78-1.23v66.27h28.54Zm-180.91-46.18l.62,1.39h-26.35l.62-1.39.48-1.4.62-1.54.63-1.38.47-1.4.62-1.39.62-1.54.62-1.4.48-1.38.62-1.39.62-1.4.48-1.54.62-1.38.62-1.4.48-1.39.62-1.4.62-1.54.62-1.38.48-1.4.62-1.4.62-1.53.48-1.39.62-1.4.62,1.4.48,1.39.6,1.53.64,1.4.48,1.4.62,1.38.62,1.55.46,1.39.64,1.39.62,1.4.46,1.38.64,1.55.46,1.39.62,1.39.62,1.38.48,1.4.61,1.55.62,1.38.48,1.4.61,1.38.62,1.55.48,1.39h0Zm48.96,46.18h1.55l-.62-1.38-.62-1.39-.62-1.4-.48-1.54-.61-1.36-.62-1.39-.62-1.4-1.26-2.76-.61-1.55-.63-1.38-.48-1.4-.6-1.38-.63-1.39-.62-1.38-.62-1.55-.63-1.39-1.26-2.76-.45-1.39-.63-1.4-.63-1.54-.62-1.38-.62-1.39-1.24-2.76-.63-1.39-.47-1.55-.62-1.38-.63-1.38-.62-1.39-.63-1.4-.62-1.38-.62-1.55-.62-1.38-.48-1.38-.6-1.4-.63-1.39-.63-1.38-.62-1.55-.62-1.38-1.26-2.77-.46-1.39-.62-1.38-.63-1.39-.61-1.54-1.26-2.76-.62-1.4-.62-1.38-.48-1.39-.62-1.54-.62-1.38-.62-1.4-.63-1.38-.63-1.39-.62-1.38-.62-1.55-.47-1.38-.61-1.4-.64-1.38-.62-1.39-.62-1.4-.62-1.52-.63-1.4-.63-1.39-.46-1.38-.62-1.39-.64-1.4-.6-1.54-.64-1.38-.62-1.39-.62-1.38-.62-1.4-.48-1.39-.62-1.54-.62-1.38-.62-1.39-.64-1.4h-28.83l-.62,1.4-.62,1.39-.64,1.38-.46,1.55-.62,1.38-.62,1.4-.64,1.38-.61,1.39-.63,1.38-.62,1.55-.64,1.39-.46,1.39-1.24,2.76-.62,1.4-.62,1.52-.64,1.4-.62,1.39-.62,1.38-.48,1.4-.61,1.39-.62,1.54-1.24,2.76-.62,1.38-.63,1.4-.63,1.38-.46,1.55-.63,1.38-.62,1.38-.63,1.4-.62,1.39-.62,1.38-.62,1.55-.63,1.38-.47,1.38-1.25,2.76-.62,1.4-.63,1.39-.62,1.54-.62,1.38-.62,1.39-.48,1.4-.61,1.38-.62,1.39-.63,1.54-.62,1.38-.62,1.4-.62,1.39-.63,1.38-.47,1.39-.62,1.54-.63,1.39-.62,1.39-.62,1.38-.63,1.39-.62,1.38-.62,1.55-.48,1.39-1.24,2.76-.62,1.39-.63,1.4-.62,1.54-.61,1.38-.64,1.39-.47,1.38-.63,1.4-.62,1.39-.62,1.54-.62,1.38-.62,1.39-1.26,2.77-.47,1.37-.61,1.55-1.26,2.77-.62,1.38h31.51l.62-1.38.47-1.39.63-1.4.62-1.54.47-1.36.63-1.39.62-1.4.46-1.39.63-1.38.63-1.39.46-1.4.62-1.54.64-1.38.47-1.39.61-1.38h44.76l.62,1.38.48,1.39.61,1.38.62,1.55.47,1.39.63,1.39.62,1.38.47,1.39,1.26,2.77.45,1.37.63,1.55.63,1.39.48,1.39.61,1.38h30.57Zm-136.6-14.31l1.1-.91v-50.04h-51.46v22.48h22.77v14l-1.24.78-1.12.62-1.39.61-1.26.61-1.41.62-1.39.31-1.55.47-1.57.3-1.55.31-1.57.15-1.72.16-1.72.16h-3.59l-1.71-.16-1.55-.16-1.57-.31-1.55-.3-1.57-.47-1.55-.46-1.41-.62-1.41-.61-1.39-.61-1.26-.78-1.24-.78-1.24-.92-1.26-.92-1.09-.93-.94-1.07-1.09-1.09-.94-1.07-.93-1.24-.78-1.22-.8-1.23-.78-1.39-.61-1.4-.64-1.54-.46-1.22-.47-1.38-.31-1.4-.63-2.76-.16-1.55-.15-1.39-.16-1.53v-3.55l.16-1.54.15-1.52.32-1.71.32-1.38.31-1.53.47-1.54.61-1.38.48-1.4.63-1.39.79-1.23.78-1.39.78-1.23.78-1.08.94-1.22,1.09-1.09.94-1.08,1.09-.92,1.1-.93,1.1-.91,1.24-.78,1.24-.78,1.26-.77,1.41-.61,1.39-.62,1.41-.46,1.41-.47,1.41-.3,1.55-.31,1.41-.16,1.57-.16h3.27l1.72.16,1.72.16,1.55.15,1.55.31,1.57.32,1.41.3,1.39.46,1.41.47,1.26.47,1.24.61,1.26.62,1.39.78,1.24.76,1.26.78,1.24.77,1.24.93,1.26.77,1.24,1.08,1.24.92.93-1.22,1.1-1.08.93-1.24,1.1-1.23.93-1.22.95-1.1,1.09-1.22.94-1.23,1.09-1.24.94-1.07.93-1.23,1.1-1.23.93-1.08.93-1.24,1.1-1.23.93-1.22,1.1-1.08.93-1.24-1.24-.93-1.26-1.07-1.24-.92-1.24-.93-1.24-.78-1.24-.91-1.42-.78-1.25-.78-1.39-.77-1.26-.78-1.41-.6-1.39-.78-1.43-.61-1.39-.62-1.41-.61-1.41-.47-1.24-.47-1.41-.31-1.41-.45-1.41-.32-1.39-.31-1.43-.3-1.55-.31-1.55-.3-1.41-.16-1.72-.3-1.55-.16h-1.57l-1.72-.15-1.72-.16h-6.7l-1.55.16-1.57.15-3.1.32-1.57.31-1.55.15-1.55.3-1.41.47-1.57.31-1.41.47-1.4.3-1.4.63-1.57.45-1.24.47-1.55.78-1.41.61-1.41.62-1.41.78-1.41.78-1.41.77-1.23.78-1.26.75-1.24.93-1.26.78-1.24.91-1.09.93-1.25,1.08-1.1.92-1.09,1.09-1.09,1.08-.94,1.08-1.09,1.08-.94,1.08-.94,1.24-.93,1.22-.93,1.23-1.57,2.46-.77,1.23-.78,1.24-.8,1.38-.62,1.39-1.24,2.77-.62,1.39-.64,1.54-.46,1.38-.48,1.54-.46,1.38-.31,1.55-.48,1.53-.31,1.39-.16,1.54-.31,1.52-.16,1.71-.16,1.54v1.52l-.15,1.71v5.07l.15,1.55.16,1.53.16,1.55.16,1.38.31,1.54.15,1.38.31,1.55.48,1.38.3,1.54.48,1.38.3,1.4.62,1.38.48,1.24.62,1.38.62,1.39.62,1.38.62,1.4.79,1.22.79,1.4.78,1.22.78,1.24.93,1.23.79,1.22.93,1.08.94,1.24.94,1.07,1.09,1.09,1.09,1.07,1.1.94,1.1,1.07,1.09.94,1.1.91,1.26.93,1.23.92,1.25.93,1.24.76,1.26.78,1.4.77,1.24.78,1.41.77,1.41.61,1.4.61,1.42.62,1.55.61,1.4.47,1.41.61,1.41.47,1.56.31,1.4.47,1.57.3,1.41.31,1.55.3,1.55.31,1.57.16,1.55.16,1.55.15,1.72.16,1.55.15h6.72l1.72-.15,1.55-.16,1.72-.15,1.57-.16,1.7-.16,1.57-.15,1.55-.31,1.57-.32,1.39-.3,1.57-.31,1.41-.47,1.55-.45,1.41-.47,1.41-.47,1.41-.47,1.39-.61,1.57-.61,1.41-.63,1.55-.61,1.41-.78,1.41-.6,1.4-.78,1.41-.78,1.4-.75,1.25-.78,1.26-.78,1.23-.92,1.25-.78,1.26-.91,1.07-.78,1.26-.93Zm45.87-371.29v-58.13h-77.37v-97.29h77.37v-58.09h-135.77v387.92h135.77v-58.01h-77.37v-116.39h77.37Zm387.95,101.83c0,15.25-7.66,22.33-22.7,22.33h-11.15c-15.61,0-24.19-7.08-24.19-22.33v-237.71c0-15.26,8.56-25.45,24.18-25.45h10.04c18.31,0,23.83,6.19,23.83,25.45v77.52l58.16.1v-83.54c0-47.38-24.65-71.36-73.16-71.36h-29.02c-48.51,0-72.39,29.87-72.39,77.28v240.43c0,47.4,23.88,70.09,72.39,70.09h29.57c48.53,0,72.61-22.69,72.61-70.09v-85.25h-58.16v82.53Zm-193.99,72.58h58.19V135.77h-58.19v387.92Zm-77.63-215.57c0,15.52-4.24,21.61-18.31,21.61h-20.49v-141.86h20.49c14.06,0,18.31,7.2,18.31,22.71v97.54Zm-96.93-172.35v387.92h58.13v-140.77h29.35c45.31,0,67.69-23.82,67.69-72.02v-103.09c0-48.23-22.38-72.05-67.69-72.05h-87.48Zm290.94,737.41h-310.33l155.17,57.86,155.17-57.86Z"/>
  </g>
</svg>